<?xml version="1.0" standalone="no"?>
<!DOCTYPE svg PUBLIC "-//W3C//DTD SVG 20010904//EN"
 "http://www.w3.org/TR/2001/REC-SVG-20010904/DTD/svg10.dtd">
<svg version="1.0" xmlns="http://www.w3.org/2000/svg"
 width="256.000000pt" height="256.000000pt" viewBox="0 0 256.000000 256.000000"
 preserveAspectRatio="xMidYMid meet">

<g transform="translate(0.000000,256.000000) scale(0.100000,-0.100000)"
fill="#ffffff" stroke="white" stroke-width="2">
<path d="M1845 2426 c-155 -38 -306 -153 -386 -293 l-30 -53 -582 0 -582 0
-130 -110 c-72 -60 -131 -118 -133 -128 -2 -14 35 -54 130 -141 73 -66 139
-121 146 -121 8 0 65 27 128 61 l114 61 105 -61 c57 -34 109 -61 115 -61 6 0
58 27 115 60 l104 60 85 -60 85 -60 143 -1 143 0 45 -71 c75 -118 211 -215
355 -253 76 -19 214 -19 290 0 374 98 561 509 388 855 -52 103 -160 211 -263
263 -123 61 -269 82 -385 53z m234 -81 c91 -22 176 -70 246 -140 280 -280 158
-755 -224 -869 -68 -20 -198 -21 -270 -1 -132 35 -255 130 -329 255 l-39 65
-159 5 -159 5 -70 51 c-117 85 -101 84 -223 14 l-107 -62 -45 24 c-25 14 -75
41 -112 62 l-67 37 -115 -61 c-133 -71 -107 -76 -235 41 l-72 66 96 79 96 79
596 5 597 5 35 70 c64 126 195 232 332 269 71 19 149 19 228 1z"/>
<path d="M1893 2169 c-10 -10 -13 -90 -13 -330 0 -362 -4 -346 82 -335 177 24
313 193 294 368 -16 156 -144 286 -299 304 -36 4 -56 2 -64 -7z m207 -149
c105 -104 105 -256 1 -360 -29 -29 -65 -53 -94 -63 l-47 -16 0 259 0 259 47
-16 c29 -10 65 -34 93 -63z"/>
<path d="M102 1099 c-26 -13 -55 -39 -70 -62 l-27 -41 0 -376 0 -376 24 -36
c13 -19 40 -46 59 -59 l36 -24 1156 0 1156 0 36 24 c19 13 46 40 59 59 l24 36
0 376 0 376 -24 36 c-13 19 -40 46 -59 59 l-36 24 -1145 3 -1146 2 -43 -21z
m2345 -92 l28 -27 0 -360 0 -360 -28 -27 -27 -28 -1140 0 -1140 0 -27 28 -28
27 0 359 c0 345 1 360 20 381 11 12 29 26 40 31 11 4 527 7 1147 6 l1128 -2
27 -28z"/>
<path d="M1962 899 c-29 -5 -76 -21 -105 -35 -63 -32 -163 -132 -197 -197
l-25 -47 25 -47 c34 -65 134 -165 195 -196 107 -54 223 -54 330 0 61 31 161
131 195 196 l25 47 -25 47 c-34 65 -134 165 -196 196 -44 22 -68 29 -149 41
-11 2 -44 -1 -73 -5z m176 -105 c53 -23 135 -99 161 -147 18 -34 7 -57 -61
-128 -129 -135 -307 -135 -436 0 -68 71 -79 94 -61 128 22 43 102 119 148 143
85 43 159 44 249 4z"/>
<path d="M1942 750 c-130 -79 -74 -280 78 -280 85 0 150 65 150 150 0 85 -65
150 -150 150 -27 0 -58 -8 -78 -20z m128 -80 c43 -43 11 -120 -50 -120 -38 0
-70 32 -70 70 0 38 32 70 70 70 17 0 39 -9 50 -20z"/>
<path d="M416 854 c-23 -22 -21 -30 28 -114 l44 -75 -95 -5 c-77 -4 -98 -8
-107 -23 -8 -12 -8 -22 0 -35 9 -14 30 -18 107 -22 l95 -5 -44 -75 c-49 -83
-53 -104 -25 -120 31 -16 47 -3 92 76 23 41 45 74 49 74 4 0 26 -33 49 -74 45
-79 61 -92 92 -76 28 16 24 37 -25 120 l-44 75 95 5 c77 4 98 8 107 22 8 13 8
23 0 35 -9 15 -30 19 -107 23 l-95 5 44 75 c45 77 51 106 23 123 -27 17 -45 2
-90 -77 -24 -42 -46 -76 -49 -76 -4 0 -26 33 -49 74 -36 63 -56 86 -76 86 -2
0 -11 -7 -19 -16z"/>
<path d="M1136 854 c-23 -22 -21 -30 28 -114 l44 -75 -95 -5 c-77 -4 -98 -8
-107 -23 -8 -12 -8 -22 0 -35 9 -14 30 -18 107 -22 l95 -5 -44 -75 c-49 -83
-53 -104 -25 -120 31 -16 47 -3 92 76 23 41 45 74 49 74 4 0 26 -33 49 -74 45
-79 61 -92 92 -76 28 16 24 37 -25 120 l-44 75 95 5 c77 4 98 8 107 22 8 13 8
23 0 35 -9 15 -30 19 -107 23 l-95 5 44 75 c45 77 51 106 23 123 -27 17 -45 2
-90 -77 -24 -42 -46 -76 -49 -76 -4 0 -26 33 -49 74 -36 63 -56 86 -76 86 -2
0 -11 -7 -19 -16z"/>
</g>
</svg>
