<?xml version="1.0" standalone="no"?>
<!DOCTYPE svg PUBLIC "-//W3C//DTD SVG 20010904//EN"
 "http://www.w3.org/TR/2001/REC-SVG-20010904/DTD/svg10.dtd">
<svg version="1.0" xmlns="http://www.w3.org/2000/svg"
 width="512.000000pt" height="512.000000pt" viewBox="0 0 512.000000 512.000000"
 preserveAspectRatio="xMidYMid meet">

<g transform="translate(0.000000,512.000000) scale(0.100000,-0.100000)"
fill="#ffffff" stroke="none">
<path d="M2160 5114 c-614 -25 -1236 -89 -1406 -145 -285 -95 -514 -324 -604
-606 -76 -236 -150 -1127 -150 -1803 0 -537 52 -1292 115 -1661 59 -350 304
-637 638 -747 60 -20 148 -38 248 -51 993 -131 2079 -132 3078 -6 313 40 465
104 636 267 188 179 266 343 305 642 123 934 131 1940 25 2906 -33 293 -48
380 -85 482 -51 141 -110 231 -229 348 -173 171 -327 242 -606 279 -224 30
-532 59 -790 76 -215 14 -985 27 -1175 19z m1035 -224 c404 -23 921 -76 1058
-110 128 -32 228 -90 332 -195 105 -104 163 -204 195 -332 34 -138 85 -627
111 -1078 15 -257 15 -971 0 -1230 -26 -449 -77 -940 -111 -1078 -59 -237
-265 -452 -500 -521 -30 -9 -122 -25 -205 -36 -957 -125 -2073 -125 -3030 0
-179 23 -234 38 -340 93 -61 31 -102 63 -170 132 -105 104 -163 204 -195 332
-34 138 -86 637 -111 1078 -15 258 -15 972 0 1230 25 441 77 940 111 1078 32
128 90 228 195 332 104 105 204 163 332 195 188 47 852 106 1398 124 157 5
731 -4 930 -14z"/>
<path d="M1204 4151 c-51 -13 -134 -63 -165 -100 -16 -20 -39 -56 -51 -81 -21
-42 -23 -58 -23 -235 0 -224 8 -250 99 -340 l56 -54 2 -963 3 -963 24 -53 c29
-64 112 -143 178 -168 45 -18 97 -19 812 -22 l763 -3 52 -44 c60 -53 184 -117
276 -142 89 -24 281 -24 370 1 431 118 667 575 509 986 -16 41 -47 102 -69
135 l-39 60 -1 588 0 588 55 54 c92 90 100 116 100 340 0 187 0 191 -27 241
-40 76 -70 107 -140 145 l-63 34 -1345 2 c-740 0 -1359 -2 -1376 -6z m2681
-217 c52 -24 65 -64 65 -198 0 -78 -5 -128 -14 -151 -29 -70 67 -65 -1376 -65
-1443 0 -1347 -5 -1376 65 -20 50 -19 256 2 300 32 69 -60 65 1372 65 1158 0
1297 -2 1327 -16z m-97 -1101 c1 -323 -1 -473 -8 -473 -6 0 -33 12 -61 26
-128 64 -339 84 -490 45 -219 -56 -391 -198 -490 -406 -79 -165 -92 -376 -32
-547 l31 -88 -667 0 c-600 0 -669 2 -690 16 -52 37 -51 14 -51 987 0 497 3
907 7 910 3 4 556 6 1227 5 l1221 -3 3 -472z m-204 -622 c156 -55 279 -178
334 -334 48 -136 30 -310 -45 -440 -16 -26 -54 -74 -86 -106 -204 -206 -537
-207 -746 -1 -98 96 -148 206 -158 345 -17 252 155 487 403 550 79 20 220 13
298 -14z"/>
<path d="M2177 3070 c-38 -30 -52 -80 -33 -123 27 -66 35 -67 416 -67 381 0
389 1 416 67 19 43 5 93 -33 123 -25 19 -40 20 -383 20 -343 0 -358 -1 -383
-20z"/>
<path d="M3137 1790 c-38 -30 -52 -80 -33 -123 26 -63 45 -67 311 -67 203 0
241 2 265 17 58 34 68 116 21 164 l-29 29 -255 0 c-240 0 -256 -1 -280 -20z"/>
</g>
</svg>
