<?xml version="1.0" standalone="no"?>
<!DOCTYPE svg PUBLIC "-//W3C//DTD SVG 20010904//EN"
 "http://www.w3.org/TR/2001/REC-SVG-20010904/DTD/svg10.dtd">
<svg version="1.0" xmlns="http://www.w3.org/2000/svg"
 width="256.000000pt" height="256.000000pt" viewBox="0 0 256.000000 256.000000"
 preserveAspectRatio="xMidYMid meet">

<g transform="translate(0.000000,256.000000) scale(0.100000,-0.100000)"
fill="#000000" stroke="none">
<path d="M268 2435 c-55 -20 -97 -55 -126 -105 l-27 -45 0 -1006 0 -1006 30
-49 c19 -30 49 -60 79 -79 l49 -30 1007 0 1007 0 49 30 c30 19 60 49 79 79
l30 49 0 1007 0 1007 -30 49 c-19 30 -49 60 -79 79 l-49 30 -991 2 c-817 1
-997 -1 -1028 -12z m2013 -100 c16 -9 39 -30 49 -48 19 -31 20 -58 20 -1007 0
-949 -1 -976 -20 -1007 -40 -67 22 -63 -1052 -63 -947 0 -974 1 -1005 20 -67
40 -63 -22 -63 1050 0 1072 -4 1010 63 1050 31 19 58 20 1005 20 859 0 977 -2
1003 -15z"/>
<path d="M706 1954 c-64 -20 -137 -92 -159 -159 -15 -43 -17 -106 -17 -515 0
-535 -1 -530 80 -611 79 -79 82 -79 609 -79 409 1 461 2 507 18 57 20 101 52
133 98 16 23 35 35 68 43 67 17 113 44 160 93 64 66 88 127 87 223 0 97 -32
172 -95 230 -39 35 -130 85 -155 85 -8 0 -13 57 -16 193 -3 167 -6 198 -24
237 -25 54 -71 103 -128 133 -41 22 -47 22 -521 24 -405 2 -488 0 -529 -13z
m254 -337 c0 -183 3 -256 12 -265 26 -26 54 -11 150 85 l98 98 98 -98 c53 -53
105 -97 114 -97 9 0 24 7 32 16 14 13 16 51 16 265 l0 249 100 0 c119 0 156
-12 196 -66 l29 -37 3 -192 3 -192 -46 -13 c-94 -26 -189 -120 -215 -215 -7
-27 -11 -75 -8 -118 8 -121 73 -214 185 -267 50 -24 48 -36 -11 -64 -30 -14
-95 -16 -504 -16 l-469 0 -34 23 c-18 12 -44 38 -56 56 l-23 34 0 477 0 477
23 34 c44 66 77 79 198 79 l109 0 0 -253z m420 71 l0 -181 -74 71 c-41 40 -80
72 -88 72 -7 0 -45 -31 -83 -70 -38 -38 -73 -70 -77 -70 -5 0 -8 81 -8 180 l0
180 165 0 165 0 0 -182z m539 -408 c56 -16 106 -57 136 -111 24 -44 27 -59 23
-118 -4 -81 -35 -135 -99 -178 -48 -32 -136 -42 -195 -23 -124 41 -187 196
-128 314 50 97 160 146 263 116z"/>
<path d="M1832 1224 c-19 -13 -22 -24 -22 -93 0 -88 5 -96 74 -140 72 -45 116
-38 116 16 0 17 -12 31 -45 51 -44 27 -44 27 -45 85 0 43 -5 62 -20 77 -24 24
-29 24 -58 4z"/>
</g>
</svg>
