<?xml version="1.0" standalone="no"?>
<!DOCTYPE svg PUBLIC "-//W3C//DTD SVG 20010904//EN"
 "http://www.w3.org/TR/2001/REC-SVG-20010904/DTD/svg10.dtd">
<svg version="1.0" xmlns="http://www.w3.org/2000/svg"
 width="256.000000pt" height="256.000000pt" viewBox="0 0 256.000000 256.000000"
 preserveAspectRatio="xMidYMid meet">

<g transform="translate(0.000000,256.000000) scale(0.100000,-0.100000)"
fill="#ffffff" stroke="white" stroke-width="20">
<path d="M855 2280 c-187 -77 -347 -144 -355 -148 -12 -7 -16 -40 -20 -157
l-5 -148 -109 -47 -108 -48 -115 -133 c-135 -156 -145 -171 -138 -192 4 -8 58
-39 121 -68 l114 -53 0 -315 c0 -174 4 -321 8 -328 7 -11 170 -92 537 -267 72
-35 212 -102 312 -151 l183 -88 507 243 c280 134 514 250 521 259 9 11 12 93
12 331 l0 316 114 53 c63 29 117 60 121 68 7 21 -3 35 -136 191 l-115 133
-129 58 -130 57 -5 138 c-4 109 -8 141 -20 147 -15 9 -814 289 -821 289 -2 0
-157 -63 -344 -140z m687 -60 c180 -63 324 -118 320 -122 -4 -4 -82 -32 -173
-62 l-167 -55 -281 123 c-155 68 -284 125 -286 128 -6 6 237 107 250 104 6 -1
157 -54 337 -116z m-412 -151 c151 -66 276 -122 278 -123 1 -2 -53 -22 -120
-45 l-123 -41 -267 117 c-148 64 -268 119 -268 122 0 7 199 90 215 91 6 0 134
-54 285 -121z m-282 -154 l272 -119 0 -194 c0 -180 -1 -193 -17 -188 -10 3
-135 53 -278 110 l-260 104 -3 207 c-1 113 1 205 5 202 5 -2 131 -57 281 -122z
m1112 -89 l0 -214 -200 -80 -200 -80 2 230 3 231 185 63 c102 34 191 63 198
63 9 1 12 -48 12 -213z m-480 -175 l0 -229 -99 -40 -98 -41 -42 16 -41 16 2
210 3 210 125 43 c69 23 131 43 138 43 9 1 12 -51 12 -228z m629 83 c34 -15
61 -30 61 -33 0 -4 -24 -15 -52 -26 -29 -10 -59 -20 -65 -23 -10 -3 -13 11
-13 52 0 31 2 56 4 56 3 0 32 -12 65 -26z m-1629 -35 c0 -22 -3 -38 -7 -36 -5
3 -26 12 -48 22 l-40 16 35 19 c52 28 60 26 60 -21z m274 -229 c247 -99 452
-182 454 -185 4 -4 -205 -248 -218 -253 -4 -1 -70 26 -146 62 -76 35 -269 123
-429 196 -160 73 -294 136 -299 140 -9 9 162 218 179 219 6 1 212 -80 459
-179z m1606 79 c47 -56 85 -106 85 -111 0 -6 -56 -37 -125 -68 -69 -31 -264
-121 -434 -199 -170 -78 -312 -140 -316 -139 -14 6 -222 249 -217 254 3 3 45
21 94 39 48 19 250 99 448 179 198 80 365 145 370 145 6 0 48 -45 95 -100z
m-1649 -478 c158 -72 293 -129 301 -126 8 3 62 60 119 126 l104 120 3 -235 c1
-129 1 -342 0 -473 l-3 -239 -457 220 -458 219 0 284 0 283 53 -24 c28 -13
181 -82 338 -155z m1529 -104 l0 -284 -172 -83 c-95 -46 -227 -109 -293 -140
-66 -32 -195 -94 -287 -138 l-168 -81 0 475 c0 261 1 474 3 474 2 0 50 -54
107 -120 57 -65 110 -122 118 -125 15 -5 84 25 482 209 113 52 206 95 208 95
1 1 2 -127 2 -282z"/>
<path d="M896 804 c-13 -12 -16 -38 -16 -122 0 -59 4 -112 8 -119 7 -11 162
-80 218 -97 14 -4 28 -1 38 9 23 23 23 226 1 249 -12 11 -214 96 -230 96 -2 0
-11 -7 -19 -16z m128 -105 l56 -22 0 -59 c0 -33 -4 -58 -8 -56 -4 2 -31 12
-60 22 l-52 20 0 58 c0 32 2 58 4 58 2 0 29 -10 60 -21z"/>
<path d="M1526 675 c-135 -58 -165 -76 -166 -97 0 -8 29 -38 37 -38 12 0 291
121 309 134 16 12 16 18 6 40 -6 14 -17 26 -24 26 -7 0 -80 -29 -162 -65z"/>
<path d="M1526 515 c-135 -58 -165 -76 -166 -97 0 -8 29 -38 37 -38 12 0 291
121 309 134 16 12 16 18 6 40 -6 14 -17 26 -24 26 -7 0 -80 -29 -162 -65z"/>
</g>
</svg>
