<?xml version="1.0" standalone="no"?>
<!DOCTYPE svg PUBLIC "-//W3C//DTD SVG 20010904//EN"
 "http://www.w3.org/TR/2001/REC-SVG-20010904/DTD/svg10.dtd">
<svg version="1.0" xmlns="http://www.w3.org/2000/svg"
 width="256.000000pt" height="256.000000pt" viewBox="0 0 256.000000 256.000000"
 preserveAspectRatio="xMidYMid meet">

<g transform="translate(0.000000,256.000000) scale(0.100000,-0.100000)"
fill="#000000" stroke="none">
<path d="M920 2549 c-192 -11 -435 -38 -502 -54 -158 -39 -280 -149 -339 -306
-38 -99 -79 -573 -79 -909 0 -336 41 -810 79 -909 59 -157 181 -267 339 -306
126 -31 575 -65 862 -65 287 0 736 34 862 65 158 39 280 149 339 306 38 99 79
573 79 909 0 336 -41 810 -79 909 -59 157 -181 267 -339 306 -202 50 -828 77
-1222 54z m772 -110 c264 -18 439 -44 500 -73 67 -32 151 -117 179 -183 11
-26 26 -92 34 -148 33 -239 40 -378 40 -755 0 -494 -28 -807 -81 -913 -34 -69
-103 -139 -170 -171 -109 -54 -418 -81 -914 -81 -378 0 -516 7 -758 40 -126
18 -194 49 -262 121 -83 88 -99 144 -132 484 -18 182 -18 858 0 1040 34 350
52 409 147 499 98 93 147 104 650 144 103 9 631 6 767 -4z"/>
<path d="M575 2066 c-71 -31 -95 -83 -95 -202 0 -92 21 -153 60 -174 19 -10
20 -25 22 -504 3 -484 3 -495 24 -523 11 -15 36 -38 54 -50 33 -23 35 -23 416
-23 l384 0 47 -34 c77 -55 127 -71 223 -71 74 0 93 4 150 31 83 39 145 101
184 184 27 58 31 75 31 156 0 85 -2 95 -38 165 l-37 74 0 291 0 292 24 15 c40
27 59 93 55 194 -4 80 -7 93 -33 127 -52 69 -23 66 -768 66 -539 -1 -679 -3
-703 -14z m1383 -108 c19 -19 16 -163 -4 -182 -14 -14 -89 -16 -674 -16 -585
0 -660 2 -674 16 -20 19 -23 163 -4 182 17 17 1339 17 1356 0z m-68 -542 l0
-234 -52 20 c-74 29 -194 29 -268 0 -163 -64 -267 -254 -227 -417 8 -33 18
-68 22 -77 7 -17 -12 -18 -322 -18 -281 0 -332 2 -351 16 l-22 15 0 465 0 464
610 0 610 0 0 -234z m-97 -312 c64 -22 130 -82 157 -145 17 -42 21 -66 18
-118 -5 -77 -25 -125 -75 -174 -49 -50 -97 -70 -174 -75 -257 -16 -379 313
-173 470 75 57 160 72 247 42z"/>
<path d="M1092 1534 c-28 -20 -30 -69 -3 -84 12 -6 93 -10 195 -10 189 0 206
5 206 55 0 47 -30 55 -210 55 -134 0 -170 -3 -188 -16z"/>
<path d="M1666 988 c-9 -12 -16 -35 -16 -50 0 -24 -4 -28 -28 -28 -41 0 -72
-26 -72 -60 0 -34 23 -50 69 -50 29 0 31 -3 31 -35 0 -36 28 -75 53 -75 32 0
57 31 57 71 0 39 0 39 39 39 40 0 71 25 71 57 0 25 -39 53 -75 53 -32 0 -35 2
-35 31 0 17 -5 39 -10 50 -15 27 -64 25 -84 -3z"/>
</g>
</svg>
