<?xml version="1.0" standalone="no"?>
<!DOCTYPE svg PUBLIC "-//W3C//DTD SVG 20010904//EN"
 "http://www.w3.org/TR/2001/REC-SVG-20010904/DTD/svg10.dtd">
<svg class="w-6" version="1.0" xmlns="http://www.w3.org/2000/svg" viewBox="0 0 256.000000 256.000000" preserveAspectRatio="xMidYMid meet">

<g transform="translate(0.000000,256.000000) scale(0.100000,-0.100000)"
fill="#6366F1" stroke="#6366f1" stroke-width="10">
<path d="M410 2553 c-8 -4 -32 -23 -52 -45 l-38 -38 0 -1186 c0 -1309 -4
-1223 63 -1264 31 -19 55 -20 722 -20 l690 0 222 223 223 222 0 1010 c0 984
-1 1011 -20 1042 -40 66 10 63 -937 62 -472 0 -865 -3 -873 -6z m1747 -103
c10 -20 13 -230 13 -981 l0 -957 -167 -4 c-143 -3 -173 -6 -199 -22 -58 -35
-64 -56 -64 -240 l0 -166 -662 2 -662 3 -13 25 c-20 38 -14 2330 6 2354 12 15
83 16 874 14 l861 -3 13 -25z m-187 -2165 l-145 -145 -3 132 c-2 116 0 134 15
145 11 9 58 13 147 13 l131 0 -145 -145z"/>
<path d="M1245 2307 c-65 -17 -75 -23 -75 -50 0 -23 113 -302 132 -324 8 -10
55 -13 189 -13 l179 0 12 25 c15 34 -12 143 -53 207 -81 126 -242 191 -384
155z m195 -92 c82 -41 137 -105 160 -184 l9 -31 -128 0 -128 0 -47 111 c-38
89 -45 114 -34 121 20 14 129 3 168 -17z"/>
<path d="M1056 2129 c-54 -29 -118 -96 -144 -153 -70 -149 -41 -309 77 -419
79 -74 127 -92 241 -92 82 0 103 4 152 27 113 53 194 167 205 288 6 57 5 60
-21 70 -15 5 -91 10 -169 10 l-142 0 -60 143 c-67 158 -71 162 -139 126z m78
-181 c26 -59 46 -113 46 -120 0 -7 -38 -51 -85 -98 -81 -81 -85 -83 -100 -65
-27 36 -48 125 -42 182 7 64 49 145 96 184 19 16 36 27 37 26 2 -1 23 -51 48
-109z m376 -177 c0 -26 -35 -100 -65 -137 -51 -62 -122 -94 -208 -94 -72 0
-167 31 -167 54 0 7 40 51 89 99 l88 87 132 0 c72 0 131 -4 131 -9z"/>
<path d="M656 1274 c-19 -18 -19 -20 -6 -45 10 -18 28 -19 630 -19 602 0 620
1 630 19 13 25 13 27 -6 45 -14 14 -84 16 -624 16 -540 0 -610 -2 -624 -16z"/>
<path d="M659 951 c-20 -16 -22 -23 -13 -38 11 -17 43 -18 634 -18 591 0 623
1 634 18 9 15 7 22 -13 38 -22 18 -44 19 -621 19 -577 0 -599 -1 -621 -19z"/>
<path d="M649 624 c-9 -11 -10 -20 -2 -32 9 -15 42 -17 329 -17 l319 0 0 30 0
30 -316 3 c-280 2 -318 0 -330 -14z"/>
<path d="M652 308 c-16 -16 -15 -33 4 -52 13 -14 64 -16 404 -16 340 0 391 2
404 16 19 19 20 36 4 52 -17 17 -799 17 -816 0z"/>
</g>
</svg>
