<?xml version="1.0" standalone="no"?>
<!DOCTYPE svg PUBLIC "-//W3C//DTD SVG 20010904//EN"
 "http://www.w3.org/TR/2001/REC-SVG-20010904/DTD/svg10.dtd">
<svg version="1.0" xmlns="http://www.w3.org/2000/svg"
 width="512.000000pt" height="512.000000pt" viewBox="0 0 512.000000 512.000000"
 preserveAspectRatio="xMidYMid meet">

<g transform="translate(0.000000,512.000000) scale(0.100000,-0.100000)"
fill="#000000" stroke="none">
<path d="M1515 4974 c-353 -53 -657 -207 -910 -459 -255 -256 -407 -558 -459
-916 -24 -159 -24 -1919 0 -2078 26 -181 66 -313 144 -476 218 -455 638 -779
1147 -887 107 -23 113 -23 1068 -26 995 -3 1059 -1 1230 38 343 80 655 272
877 539 180 217 294 456 351 736 22 109 22 115 22 1110 0 932 -1 1007 -19
1100 -128 694 -675 1221 -1366 1320 -147 21 -1946 20 -2085 -1z m1336 -1239
c26 -14 850 -983 906 -1068 19 -27 27 -54 30 -105 6 -83 52 -21 -489 -664
-355 -422 -423 -498 -458 -512 -93 -37 -190 -2 -236 86 -18 35 -18 121 0 156
8 15 151 189 319 387 l304 360 -891 5 -891 5 -37 23 c-112 70 -112 234 0 304
l37 23 891 5 891 5 -312 373 c-333 397 -344 413 -326 492 10 46 23 70 54 98
54 51 140 62 208 27z"/>
</g>
</svg>
