<?xml version="1.0" standalone="no"?>
<!DOCTYPE svg PUBLIC "-//W3C//DTD SVG 20010904//EN"
 "http://www.w3.org/TR/2001/REC-SVG-20010904/DTD/svg10.dtd">
<svg class="w-6" version="1.0" xmlns="http://www.w3.org/2000/svg" viewBox="0 0 256.000000 256.000000" preserveAspectRatio="xMidYMid meet">

<g transform="translate(0.000000,256.000000) scale(0.100000,-0.100000)"
fill="#6366F1" stroke="#6366f1" stroke-width="10">
<path d="M537 2409 c-116 -40 -205 -117 -257 -223 -34 -68 -32 -96 6 -96 18 0
29 11 50 52 39 76 114 151 187 184 54 25 74 29 152 29 80 0 97 -3 155 -31 103
-49 179 -140 207 -247 l13 -51 -65 -67 c-73 -75 -110 -145 -126 -238 -15 -84
-37 -96 -179 -96 -99 0 -109 2 -172 33 -109 53 -177 147 -199 270 -13 70 -27
89 -58 72 -24 -12 -25 -18 -11 -90 13 -66 50 -150 90 -200 l30 -38 -54 -16
c-121 -36 -226 -136 -278 -265 -21 -54 -22 -71 -26 -426 -4 -523 -25 -495 364
-495 l252 0 4 -117 c4 -133 18 -171 71 -203 31 -19 54 -20 587 -20 533 0 556
1 587 20 53 32 67 70 71 202 l4 118 252 0 c290 0 304 3 344 81 23 44 23 44 20
414 -4 356 -5 372 -26 426 -48 121 -157 229 -263 260 -45 14 -47 19 -18 45 59
53 109 188 109 293 0 110 -31 193 -108 289 -27 34 -40 42 -61 40 -38 -4 -38
-33 1 -81 51 -64 65 -89 84 -152 34 -119 1 -254 -85 -348 -41 -44 -131 -99
-184 -111 -89 -21 -251 5 -261 42 -2 9 -10 42 -17 72 -18 83 -65 168 -125 226
-66 63 -68 83 -19 182 41 82 103 142 183 179 68 32 186 41 253 20 51 -16 79
-8 79 22 0 10 -6 23 -12 29 -25 20 -127 35 -206 30 -181 -10 -352 -149 -392
-320 -7 -26 -16 -48 -21 -48 -4 0 -34 7 -66 15 -73 19 -143 19 -217 0 -32 -8
-61 -13 -66 -10 -5 3 -12 20 -15 38 -10 43 -51 123 -87 169 -104 133 -317 194
-481 137z m908 -423 c195 -89 278 -320 183 -510 -27 -54 -113 -137 -169 -164
-144 -70 -311 -41 -424 73 -202 202 -112 541 164 621 68 20 179 11 246 -20z
m-931 -410 c81 -32 158 -41 231 -26 107 22 106 23 130 -45 12 -33 36 -82 53
-108 17 -27 29 -54 26 -60 -2 -7 -32 -25 -67 -42 -44 -21 -62 -36 -62 -49 0
-36 28 -41 84 -17 86 37 137 38 217 5 60 -25 82 -28 169 -28 87 0 109 3 168
28 62 25 72 27 119 17 107 -23 195 -93 248 -197 l25 -49 3 -382 3 -381 -22
-21 c-22 -21 -30 -21 -559 -21 -526 0 -537 0 -558 20 -22 21 -22 23 -22 385 0
395 2 411 57 499 28 44 23 68 -15 74 -26 4 -63 -49 -94 -134 -19 -52 -22 -85
-26 -281 l-4 -223 -244 0 c-242 0 -243 0 -271 24 l-28 24 0 364 c1 358 1 364
24 422 25 64 91 142 148 177 85 53 176 61 267 25z m1772 -11 c68 -34 146 -119
176 -193 22 -56 22 -65 23 -420 l0 -364 -28 -24 c-28 -24 -29 -24 -273 -24
l-244 0 0 183 c0 283 -20 361 -119 469 -38 42 -74 68 -129 95 -43 20 -79 38
-81 40 -2 1 10 18 28 38 38 44 70 105 86 165 8 30 17 44 26 42 111 -28 166
-34 229 -23 37 6 87 20 111 31 56 25 123 20 195 -15z"/>
</g>
</svg>
