<?xml version="1.0" standalone="no"?>
<!DOCTYPE svg PUBLIC "-//W3C//DTD SVG 20010904//EN"
 "http://www.w3.org/TR/2001/REC-SVG-20010904/DTD/svg10.dtd">
<svg version="1.0" xmlns="http://www.w3.org/2000/svg"
 width="256.000000pt" height="256.000000pt" viewBox="0 0 256.000000 256.000000"
 preserveAspectRatio="xMidYMid meet">

<g transform="translate(0.000000,256.000000) scale(0.100000,-0.100000)"
fill="#ffffff" stroke="white" stroke-width="50">
<path d="M512 2327 c-39 -40 -72 -79 -72 -87 0 -20 141 -160 161 -160 19 0 39
20 39 39 0 8 -14 30 -32 48 l-32 33 721 0 c575 0 723 -3 731 -13 6 -7 12 -39
14 -71 3 -66 23 -90 56 -70 14 9 17 26 17 88 0 72 -1 77 -33 108 l-32 33 -736
5 -735 5 30 29 c33 32 39 54 19 74 -23 23 -44 12 -116 -61z"/>
<path d="M185 1935 l-25 -24 0 -631 0 -631 25 -24 24 -25 1071 0 1071 0 24 25
25 24 0 631 0 631 -25 24 -24 25 -1071 0 -1071 0 -24 -25z m2135 -655 l0 -600
-1040 0 -1040 0 0 600 0 600 1040 0 1040 0 0 -600z"/>
<path d="M443 1768 c-6 -7 -13 -25 -17 -40 -4 -19 -15 -30 -34 -34 -54 -13
-52 2 -52 -414 0 -416 -2 -401 52 -414 19 -4 30 -15 34 -34 13 -55 -36 -52
854 -52 890 0 841 -3 854 52 4 19 15 30 34 34 54 13 52 -2 52 414 0 416 2 401
-52 414 -19 4 -30 15 -34 34 -13 55 36 52 -854 52 -650 0 -830 -3 -837 -12z
m1629 -98 c9 -17 29 -35 43 -42 l25 -11 0 -337 0 -337 -25 -11 c-14 -7 -34
-25 -43 -42 l-17 -30 -775 0 -775 0 -17 30 c-9 17 -29 35 -43 42 l-25 11 0
336 0 336 30 17 c17 9 35 29 42 43 l11 25 776 0 776 0 17 -30z"/>
<path d="M1185 1627 c-109 -37 -186 -103 -232 -202 -24 -51 -28 -73 -28 -145
0 -74 4 -93 31 -151 40 -83 90 -133 173 -172 95 -45 207 -45 302 0 83 39 133
89 173 172 27 58 31 77 31 151 0 72 -4 94 -28 146 -57 123 -177 204 -311 211
-41 1 -88 -3 -111 -10z m220 -98 c89 -42 155 -149 155 -250 0 -148 -132 -279
-280 -279 -150 0 -280 130 -280 280 0 125 90 238 215 271 47 12 140 2 190 -22z"/>
<path d="M450 505 c-8 -10 -11 -39 -8 -85 3 -63 7 -73 36 -103 l32 -32 736 -5
735 -5 -30 -29 c-17 -17 -31 -37 -31 -46 0 -20 19 -40 39 -40 20 0 161 140
161 160 0 20 -141 160 -161 160 -19 0 -39 -20 -39 -39 0 -8 14 -30 32 -48 l32
-33 -720 0 c-547 0 -723 3 -732 12 -7 7 -12 37 -12 68 0 31 -5 61 -12 68 -16
16 -43 15 -58 -3z"/>
</g>
</svg>